<svg xmlns="http://www.w3.org/2000/svg" xmlns:xlink="http://www.w3.org/1999/xlink" width="500" zoomAndPan="magnify" viewBox="0 0 375 374.999991" height="500" preserveAspectRatio="xMidYMid meet" version="1.0"><defs><g/><clipPath id="c189b00747"><path d="M 37.730469 18.472656 L 348.136719 18.472656 L 348.136719 359 L 37.730469 359 Z M 37.730469 18.472656 " clip-rule="nonzero"/></clipPath><clipPath id="47e073dac0"><path d="M 192.933594 18.472656 C 107.21875 18.472656 37.730469 94.542969 37.730469 188.378906 C 37.730469 282.210938 107.21875 358.28125 192.933594 358.28125 C 278.648438 358.28125 348.136719 282.210938 348.136719 188.378906 C 348.136719 94.542969 278.648438 18.472656 192.933594 18.472656 Z M 192.933594 18.472656 " clip-rule="nonzero"/></clipPath><clipPath id="b6ed2b6909"><path d="M 0.730469 0.472656 L 311.136719 0.472656 L 311.136719 340 L 0.730469 340 Z M 0.730469 0.472656 " clip-rule="nonzero"/></clipPath><clipPath id="5f39a4e7f0"><path d="M 155.933594 0.472656 C 70.21875 0.472656 0.730469 76.542969 0.730469 170.378906 C 0.730469 264.210938 70.21875 340.28125 155.933594 340.28125 C 241.648438 340.28125 311.136719 264.210938 311.136719 170.378906 C 311.136719 76.542969 241.648438 0.472656 155.933594 0.472656 Z M 155.933594 0.472656 " clip-rule="nonzero"/></clipPath><clipPath id="960a634480"><rect x="0" width="312" y="0" height="341"/></clipPath><clipPath id="f8a35d3a11"><path d="M 42.796875 24.144531 L 342.839844 24.144531 L 342.839844 353 L 42.796875 353 Z M 42.796875 24.144531 " clip-rule="nonzero"/></clipPath><clipPath id="93f6aad620"><path d="M 192.816406 24.144531 C 109.960938 24.144531 42.796875 97.671875 42.796875 188.378906 C 42.796875 279.082031 109.960938 352.609375 192.816406 352.609375 C 275.671875 352.609375 342.839844 279.082031 342.839844 188.378906 C 342.839844 97.671875 275.671875 24.144531 192.816406 24.144531 Z M 192.816406 24.144531 " clip-rule="nonzero"/></clipPath><clipPath id="6c2be93095"><path d="M 0.796875 0.144531 L 300.839844 0.144531 L 300.839844 328.800781 L 0.796875 328.800781 Z M 0.796875 0.144531 " clip-rule="nonzero"/></clipPath><clipPath id="fdac340898"><path d="M 150.816406 0.144531 C 67.960938 0.144531 0.796875 73.671875 0.796875 164.378906 C 0.796875 255.082031 67.960938 328.609375 150.816406 328.609375 C 233.671875 328.609375 300.839844 255.082031 300.839844 164.378906 C 300.839844 73.671875 233.671875 0.144531 150.816406 0.144531 Z M 150.816406 0.144531 " clip-rule="nonzero"/></clipPath><clipPath id="92e64fa523"><rect x="0" width="301" y="0" height="329"/></clipPath><clipPath id="2e211d1946"><path d="M 83.902344 65.109375 L 303.710938 65.109375 L 303.710938 309.816406 L 83.902344 309.816406 Z M 83.902344 65.109375 " clip-rule="nonzero"/></clipPath><clipPath id="c3f8200a71"><path d="M 193.804688 65.109375 C 133.105469 65.109375 83.902344 119.820312 83.902344 187.308594 C 83.902344 254.796875 133.105469 309.507812 193.804688 309.507812 C 254.503906 309.507812 303.710938 254.796875 303.710938 187.308594 C 303.710938 119.820312 254.503906 65.109375 193.804688 65.109375 Z M 193.804688 65.109375 " clip-rule="nonzero"/></clipPath><clipPath id="9905067e26"><path d="M 0.902344 0.109375 L 220.710938 0.109375 L 220.710938 244.601562 L 0.902344 244.601562 Z M 0.902344 0.109375 " clip-rule="nonzero"/></clipPath><clipPath id="5757f9294a"><path d="M 110.804688 0.109375 C 50.105469 0.109375 0.902344 54.820312 0.902344 122.308594 C 0.902344 189.796875 50.105469 244.507812 110.804688 244.507812 C 171.503906 244.507812 220.710938 189.796875 220.710938 122.308594 C 220.710938 54.820312 171.503906 0.109375 110.804688 0.109375 Z M 110.804688 0.109375 " clip-rule="nonzero"/></clipPath><clipPath id="71fcfe9b5d"><rect x="0" width="221" y="0" height="245"/></clipPath><clipPath id="f444684310"><path d="M 203 126 L 288.410156 126 L 288.410156 178 L 203 178 Z M 203 126 " clip-rule="nonzero"/></clipPath><clipPath id="79721be740"><path d="M 99.410156 126 L 184 126 L 184 178 L 99.410156 178 Z M 99.410156 126 " clip-rule="nonzero"/></clipPath><clipPath id="25ffda501e"><path d="M 183 120.625 L 204 120.625 L 204 142 L 183 142 Z M 183 120.625 " clip-rule="nonzero"/></clipPath><clipPath id="88f3346cf7"><path d="M 182 245 L 209 245 L 209 290.875 L 182 290.875 Z M 182 245 " clip-rule="nonzero"/></clipPath><clipPath id="009aad9694"><path d="M 196 271 L 206 271 L 206 290.875 L 196 290.875 Z M 196 271 " clip-rule="nonzero"/></clipPath><clipPath id="5552fa6a40"><path d="M 187 290 L 188 290 L 188 290.875 L 187 290.875 Z M 187 290 " clip-rule="nonzero"/></clipPath><clipPath id="0118902fa9"><path d="M 199 290 L 200 290 L 200 290.875 L 199 290.875 Z M 199 290 " clip-rule="nonzero"/></clipPath><clipPath id="579e3b0584"><rect x="0" width="319" y="0" height="236"/></clipPath><clipPath id="bb9aec8e21"><path d="M 73.359375 255.394531 L 94.476562 255.394531 L 94.476562 275.492188 L 73.359375 275.492188 Z M 73.359375 255.394531 " clip-rule="nonzero"/></clipPath><clipPath id="14556434bc"><path d="M 83.902344 255.394531 L 86.390625 263.070312 L 94.445312 263.070312 L 87.929688 267.816406 L 90.417969 275.492188 L 83.902344 270.75 L 77.386719 275.492188 L 79.875 267.816406 L 73.359375 263.070312 L 81.414062 263.070312 Z M 83.902344 255.394531 " clip-rule="nonzero"/></clipPath><clipPath id="d3327c2cab"><path d="M 0.359375 0.394531 L 21.476562 0.394531 L 21.476562 20.492188 L 0.359375 20.492188 Z M 0.359375 0.394531 " clip-rule="nonzero"/></clipPath><clipPath id="d1f4ae41c2"><path d="M 10.902344 0.394531 L 13.390625 8.070312 L 21.445312 8.070312 L 14.929688 12.816406 L 17.417969 20.492188 L 10.902344 15.75 L 4.386719 20.492188 L 6.875 12.816406 L 0.359375 8.070312 L 8.414062 8.070312 Z M 10.902344 0.394531 " clip-rule="nonzero"/></clipPath><clipPath id="71baab3ff3"><rect x="0" width="22" y="0" height="21"/></clipPath><clipPath id="8a30804967"><rect x="0" width="237" y="0" height="92"/></clipPath><clipPath id="d7a73d354a"><path d="M 297.679688 250.894531 L 318.796875 250.894531 L 318.796875 270.988281 L 297.679688 270.988281 Z M 297.679688 250.894531 " clip-rule="nonzero"/></clipPath><clipPath id="37c8c9fb1f"><path d="M 308.222656 250.894531 L 310.710938 258.570312 L 318.765625 258.570312 L 312.25 263.3125 L 314.738281 270.988281 L 308.222656 266.246094 L 301.707031 270.988281 L 304.195312 263.3125 L 297.679688 258.570312 L 305.734375 258.570312 Z M 308.222656 250.894531 " clip-rule="nonzero"/></clipPath><clipPath id="fe1454f18f"><path d="M 0.679688 0.894531 L 21.796875 0.894531 L 21.796875 20.988281 L 0.679688 20.988281 Z M 0.679688 0.894531 " clip-rule="nonzero"/></clipPath><clipPath id="c34ee5aa9b"><path d="M 11.222656 0.894531 L 13.710938 8.570312 L 21.765625 8.570312 L 15.25 13.3125 L 17.738281 20.988281 L 11.222656 16.246094 L 4.707031 20.988281 L 7.195312 13.3125 L 0.679688 8.570312 L 8.734375 8.570312 Z M 11.222656 0.894531 " clip-rule="nonzero"/></clipPath><clipPath id="b7f24ea875"><rect x="0" width="22" y="0" height="21"/></clipPath></defs><g clip-path="url(#c189b00747)"><g clip-path="url(#47e073dac0)"><g transform="matrix(1, 0, 0, 1, 37, 18)"><g clip-path="url(#960a634480)"><g clip-path="url(#b6ed2b6909)"><g clip-path="url(#5f39a4e7f0)"><path fill="#000000" d="M 0.730469 0.472656 L 311.136719 0.472656 L 311.136719 339.976562 L 0.730469 339.976562 Z M 0.730469 0.472656 " fill-opacity="1" fill-rule="nonzero"/></g></g></g></g></g></g><g clip-path="url(#f8a35d3a11)"><g clip-path="url(#93f6aad620)"><g transform="matrix(1, 0, 0, 1, 42, 24)"><g clip-path="url(#92e64fa523)"><g clip-path="url(#6c2be93095)"><g clip-path="url(#fdac340898)"><path fill="#ffffff" d="M 0.796875 0.144531 L 300.839844 0.144531 L 300.839844 328.316406 L 0.796875 328.316406 Z M 0.796875 0.144531 " fill-opacity="1" fill-rule="nonzero"/></g></g></g></g></g></g><g clip-path="url(#2e211d1946)"><g clip-path="url(#c3f8200a71)"><g transform="matrix(1, 0, 0, 1, 83, 65)"><g clip-path="url(#71fcfe9b5d)"><g clip-path="url(#9905067e26)"><g clip-path="url(#5757f9294a)"><path fill="#a61616" d="M 0.902344 0.109375 L 220.710938 0.109375 L 220.710938 244.816406 L 0.902344 244.816406 Z M 0.902344 0.109375 " fill-opacity="1" fill-rule="nonzero"/></g></g></g></g></g></g><path fill="#ffffff" d="M 200.789062 190.027344 C 202.308594 189.460938 203.269531 189.097656 204.226562 188.738281 C 204.207031 188.589844 204.183594 188.4375 204.164062 188.285156 C 202.878906 188.230469 201.589844 188.171875 200.28125 188.113281 C 200.191406 186.335938 201.175781 185.421875 202.324219 184.816406 C 207.882812 181.886719 213.511719 180.804688 219.160156 184.644531 C 221.378906 186.148438 223.578125 187.679688 225.789062 189.191406 C 228.949219 191.351562 231.3125 196.898438 229.082031 201.355469 C 227.121094 205.277344 223.941406 207.542969 220.261719 209.34375 C 213.980469 212.425781 207.082031 213.410156 200.367188 215.019531 C 196.097656 216.042969 191.851562 217.191406 187.660156 218.484375 C 185.898438 219.03125 184.203125 219.949219 182.648438 220.96875 C 177.796875 224.136719 177.8125 228.792969 180.367188 232.628906 C 181.53125 234.382812 183.417969 235.746094 185.179688 237.003906 C 186.679688 238.078125 188.464844 238.753906 190.277344 239.683594 C 188.304688 240.699219 186.46875 241.679688 184.59375 242.589844 C 184.203125 242.777344 183.648438 242.867188 183.238281 242.746094 C 177.671875 241.148438 172.265625 234.257812 171.847656 228.332031 C 171.523438 223.710938 173.148438 219.84375 176.496094 216.734375 C 179.4375 214.003906 182.789062 211.867188 186.601562 210.527344 C 191.359375 208.851562 196.089844 207.105469 200.882812 205.550781 C 205.128906 204.175781 209.46875 203.09375 213.722656 201.746094 C 215.566406 201.164062 217.421875 200.421875 219.0625 199.421875 C 221.402344 198 221.4375 195.742188 219.324219 194.03125 C 218.105469 193.050781 216.863281 192.511719 215.085938 192.851562 C 211.519531 193.527344 207.933594 193.0625 204.492188 191.886719 C 203.375 191.503906 202.355469 190.824219 200.789062 190.027344 Z M 207.527344 184.664062 C 207.445312 184.660156 207.367188 184.667969 207.285156 184.679688 C 206.226562 184.859375 206.394531 186.449219 207.464844 186.503906 C 207.5 186.503906 207.539062 186.503906 207.574219 186.503906 C 208.726562 186.472656 208.675781 184.707031 207.527344 184.664062 Z M 207.527344 184.664062 " fill-opacity="1" fill-rule="nonzero"/><g clip-path="url(#f444684310)"><path fill="#ffffff" d="M 203.390625 177.210938 C 203.796875 175.65625 204.410156 174.117188 204.570312 172.535156 C 205.136719 167.027344 205.460938 161.496094 206.054688 155.996094 C 206.289062 153.828125 206.867188 151.675781 207.496094 149.574219 C 210.890625 138.269531 219.402344 132.347656 230.476562 131.488281 C 240.789062 130.6875 251.132812 130.394531 261.460938 129.878906 C 268.460938 129.53125 275.453125 129.144531 282.304688 127.53125 C 284.027344 127.125 285.738281 126.683594 288.097656 126.101562 C 287.300781 127.484375 286.878906 128.496094 286.214844 129.3125 C 284.292969 131.660156 281.6875 132.992188 278.847656 133.871094 C 273.59375 135.496094 268.1875 136.160156 262.714844 136.277344 C 254 136.457031 245.285156 136.535156 236.574219 136.742188 C 234.71875 136.785156 232.839844 137.078125 231.011719 137.445312 C 221.355469 139.398438 214.679688 144.972656 211.480469 154.296875 C 209.980469 158.667969 209.171875 163.269531 207.960938 167.742188 C 207.261719 170.320312 206.472656 172.890625 205.527344 175.386719 C 205.21875 176.207031 204.871094 177.53125 203.375 177.160156 Z M 203.390625 177.210938 " fill-opacity="1" fill-rule="nonzero"/></g><g clip-path="url(#79721be740)"><path fill="#ffffff" d="M 183.550781 177.335938 C 181.761719 176.722656 181.292969 175.042969 180.832031 173.570312 C 179.957031 170.785156 179.375 167.90625 178.664062 165.066406 C 177.917969 162.070312 177.320312 159.023438 176.371094 156.089844 C 172.449219 143.996094 164.300781 137.539062 151.589844 136.828125 C 143.632812 136.378906 135.644531 136.417969 127.671875 136.34375 C 121.625 136.285156 115.644531 135.832031 109.777344 134.296875 C 106.910156 133.546875 104.222656 132.425781 102.007812 130.390625 C 100.828125 129.304688 99.78125 128.117188 99.472656 126.328125 C 103.0625 127.070312 106.429688 128.007812 109.863281 128.421875 C 115.511719 129.101562 121.191406 129.558594 126.875 129.898438 C 136.785156 130.492188 146.707031 130.882812 156.621094 131.441406 C 160.992188 131.6875 165.085938 133.003906 168.871094 135.21875 C 175.605469 139.152344 179.054688 145.375 180.535156 152.746094 C 181.351562 156.796875 181.589844 160.960938 182.078125 165.078125 C 182.5625 169.179688 183.03125 173.285156 183.503906 177.390625 Z M 183.550781 177.335938 " fill-opacity="1" fill-rule="nonzero"/></g><path fill="#ffffff" d="M 186.976562 188.175781 L 182.984375 188.175781 C 182.933594 188.4375 182.945312 188.382812 182.890625 188.644531 C 183.871094 189.046875 184.855469 189.449219 186.015625 189.925781 C 184.234375 191.550781 182.222656 192.472656 180.054688 192.648438 C 177.15625 192.882812 174.226562 192.820312 171.316406 192.71875 C 169.652344 192.664062 166.667969 194.390625 166.425781 196.007812 C 166.320312 196.714844 166.554688 197.699219 167.019531 198.21875 C 167.808594 199.09375 168.804688 199.953125 169.882812 200.375 C 172.835938 201.527344 175.859375 202.503906 178.882812 203.453125 C 182.136719 204.472656 185.429688 205.378906 188.695312 206.355469 C 188.902344 206.417969 189.074219 206.613281 189.347656 206.804688 C 186.457031 208.21875 183.496094 209.34375 180.902344 211.027344 C 178.410156 212.644531 176.210938 212.679688 173.429688 211.867188 C 169.285156 210.660156 165.578125 208.769531 162.113281 206.3125 C 159.78125 204.65625 158.324219 202.316406 157.449219 199.617188 C 156.335938 196.199219 158.160156 191.503906 161.527344 189.121094 C 163.515625 187.71875 165.554688 186.386719 167.53125 184.960938 C 173.140625 180.914062 178.847656 181.71875 184.566406 184.625 C 186.210938 185.457031 186.4375 185.960938 186.976562 188.175781 Z M 179.0625 186.238281 C 179.621094 186.703125 179.925781 186.6875 180.398438 186.164062 C 180.84375 185.679688 180.644531 184.875 180.007812 184.699219 C 179.863281 184.660156 179.71875 184.640625 179.578125 184.644531 C 178.757812 184.667969 178.429688 185.714844 179.0625 186.238281 Z M 179.0625 186.238281 " fill-opacity="1" fill-rule="nonzero"/><path fill="#ffffff" d="M 198.691406 217.597656 C 201.625 216.949219 204.566406 216.335938 207.488281 215.636719 C 208.621094 215.367188 209.472656 215.566406 210.367188 216.359375 C 216.25 221.570312 217.085938 230.171875 212.246094 236.378906 C 210.359375 238.796875 208.023438 240.710938 205.285156 242.023438 C 201.777344 243.710938 198.144531 245.144531 194.585938 246.722656 C 192.363281 247.710938 190.03125 248.550781 187.992188 249.835938 C 182.75 253.140625 182.308594 258.433594 186.808594 262.6875 C 188.15625 263.960938 189.699219 265.039062 191.378906 266.390625 C 190.214844 267.183594 189.105469 267.9375 187.9375 268.726562 C 184.507812 267.132812 181.589844 265.058594 179.847656 261.621094 C 177.214844 256.433594 178.179688 250.484375 182.65625 246.785156 C 184.816406 245.003906 187.394531 243.652344 189.933594 242.417969 C 193.070312 240.890625 196.425781 239.8125 199.570312 238.300781 C 201.527344 237.363281 203.367188 236.109375 205.09375 234.78125 C 206.8125 233.453125 207.757812 231.539062 208.234375 229.40625 C 208.898438 226.433594 208.1875 223.84375 205.800781 221.964844 C 204.289062 220.769531 202.507812 219.90625 200.820312 218.949219 C 200.136719 218.558594 199.371094 218.308594 198.644531 217.996094 C 198.660156 217.859375 198.675781 217.730469 198.691406 217.597656 Z M 198.691406 217.597656 " fill-opacity="1" fill-rule="nonzero"/><path fill="#ffffff" d="M 168.957031 151.601562 C 163.390625 149.175781 157.898438 148.613281 152.339844 148.488281 C 144.6875 148.324219 137.039062 148.238281 129.390625 148.042969 C 124.652344 147.925781 119.992188 147.226562 115.492188 145.648438 C 112.902344 144.738281 110.625 143.351562 109.003906 141.09375 C 108.417969 140.28125 108.050781 139.308594 107.5 138.238281 C 111.441406 138.785156 115.019531 139.503906 118.628906 139.738281 C 126.015625 140.226562 133.421875 140.464844 140.820312 140.792969 C 146.4375 141.042969 152.078125 141.230469 157.519531 142.734375 C 160.222656 143.484375 162.847656 144.699219 165.328125 146.039062 C 167.261719 147.078125 168.589844 148.859375 168.957031 151.601562 Z M 168.957031 151.601562 " fill-opacity="1" fill-rule="nonzero"/><path fill="#ffffff" d="M 279.542969 138.273438 C 278.695312 141.335938 276.730469 143.296875 274.191406 144.476562 C 271.785156 145.59375 269.191406 146.464844 266.589844 146.984375 C 263.496094 147.605469 260.308594 147.914062 257.152344 148.039062 C 250.890625 148.28125 244.621094 148.316406 238.355469 148.410156 C 231.601562 148.511719 224.867188 148.695312 218.21875 151.601562 C 218.464844 149.515625 219.378906 148.160156 220.632812 146.984375 C 222.707031 145.050781 225.238281 143.949219 227.910156 143.160156 C 233.738281 141.433594 239.757812 141.105469 245.773438 140.816406 C 253.332031 140.453125 260.902344 140.234375 268.453125 139.742188 C 272.066406 139.511719 275.660156 138.804688 279.542969 138.273438 Z M 279.542969 138.273438 " fill-opacity="1" fill-rule="nonzero"/><g clip-path="url(#25ffda501e)"><path fill="#ffffff" d="M 193.492188 141.335938 C 187.800781 141.28125 183.265625 136.722656 183.257812 131.039062 C 183.246094 125.304688 187.964844 120.628906 193.714844 120.683594 C 199.429688 120.734375 204.101562 125.558594 203.96875 131.265625 C 203.839844 136.90625 199.175781 141.394531 193.492188 141.335938 Z M 193.492188 141.335938 " fill-opacity="1" fill-rule="nonzero"/></g><path fill="#ffffff" d="M 190.464844 150.5 C 192.597656 150.5 194.582031 150.5 196.820312 150.5 C 196.820312 151.417969 196.828125 152.210938 196.820312 153 C 196.640625 166.667969 196.460938 180.339844 196.285156 194.011719 C 196.242188 197.175781 196.136719 200.347656 196.183594 203.511719 C 196.203125 204.867188 195.820312 205.648438 194.425781 205.921875 C 193.476562 206.105469 192.570312 206.492188 191.300781 206.902344 C 191.160156 205.585938 190.929688 204.417969 190.917969 203.253906 C 190.710938 186.332031 190.535156 169.40625 190.355469 152.484375 C 190.339844 151.859375 190.417969 151.226562 190.464844 150.5 Z M 190.464844 150.5 " fill-opacity="1" fill-rule="nonzero"/><path fill="#ffffff" d="M 262.355469 150.355469 C 261.445312 154.078125 259.34375 156.382812 256.265625 157.839844 C 252.832031 159.464844 249.15625 160.171875 245.382812 160.296875 C 240.011719 160.472656 234.636719 160.597656 229.261719 160.695312 C 224.109375 160.789062 219.023438 161.167969 214.054688 163.835938 C 214.371094 160.71875 215.964844 158.792969 218.144531 157.273438 C 220.949219 155.320312 224.152344 154.355469 227.488281 153.960938 C 231.285156 153.511719 235.105469 153.273438 238.917969 152.96875 C 245.082031 152.476562 251.253906 152.050781 257.410156 151.492188 C 258.933594 151.355469 260.417969 150.8125 262.355469 150.355469 Z M 262.355469 150.355469 " fill-opacity="1" fill-rule="nonzero"/><path fill="#ffffff" d="M 173.234375 163.914062 C 168.40625 161.292969 163.648438 160.820312 158.816406 160.710938 C 153.035156 160.582031 147.25 160.476562 141.46875 160.277344 C 137.859375 160.152344 134.359375 159.417969 131.058594 157.902344 C 127.925781 156.460938 125.832031 154.121094 124.914062 150.777344 C 125.117188 150.640625 125.273438 150.453125 125.371094 150.484375 C 132.167969 152.484375 139.199219 152.464844 146.179688 152.902344 C 150.726562 153.183594 155.28125 153.472656 159.8125 153.96875 C 162.980469 154.316406 166.027344 155.273438 168.746094 157.042969 C 171.070312 158.5625 172.691406 160.566406 173.234375 163.914062 Z M 173.234375 163.914062 " fill-opacity="1" fill-rule="nonzero"/><path fill="#ffffff" d="M 211.867188 174.757812 C 212.371094 171.015625 214.261719 168.941406 216.957031 167.476562 C 219.875 165.882812 223.089844 165.371094 226.339844 165.117188 C 230.878906 164.765625 235.4375 164.636719 239.964844 164.203125 C 242.9375 163.917969 245.875 163.261719 249.027344 162.738281 C 248.652344 165.523438 247.089844 167.722656 244.527344 169.210938 C 241.875 170.753906 238.9375 171.402344 235.894531 171.515625 C 231.835938 171.671875 227.769531 171.789062 223.707031 171.871094 C 219.691406 171.949219 215.75 172.308594 211.867188 174.757812 Z M 211.867188 174.757812 " fill-opacity="1" fill-rule="nonzero"/><path fill="#ffffff" d="M 138.160156 162.4375 C 145.507812 164.941406 153.039062 164.382812 160.4375 165.070312 C 163.847656 165.390625 167.234375 165.832031 170.296875 167.503906 C 172.976562 168.964844 174.878906 171.027344 175.273438 174.625 C 169.015625 170.941406 162.320312 172.164062 155.855469 171.660156 C 152.945312 171.433594 149.992188 171.425781 147.140625 170.882812 C 142.925781 170.082031 139.574219 167.953125 138.269531 163.511719 C 138.183594 163.226562 138.203125 162.910156 138.160156 162.4375 Z M 138.160156 162.4375 " fill-opacity="1" fill-rule="nonzero"/><g clip-path="url(#88f3346cf7)"><path fill="#ffffff" d="M 187.429688 290.78125 C 182.3125 288.195312 180.480469 280.898438 183.992188 275.835938 C 185.484375 273.683594 187.613281 271.902344 189.6875 270.246094 C 191.773438 268.582031 194.1875 267.332031 196.390625 265.796875 C 197.917969 264.730469 199.453125 263.617188 200.761719 262.300781 C 204.730469 258.320312 204.304688 253.507812 199.792969 250.199219 C 198.945312 249.578125 198.027344 249.058594 196.839844 248.296875 C 199.09375 247.363281 201.144531 246.515625 203.101562 245.707031 C 209.601562 249.605469 211.191406 259.347656 204.335938 265.464844 C 202.84375 266.800781 201.011719 267.792969 199.253906 268.789062 C 196.917969 270.113281 194.480469 271.238281 192.132812 272.539062 C 190.859375 273.246094 189.617188 274.046875 188.480469 274.957031 C 183.570312 278.894531 182.9375 284.878906 186.828125 289.832031 C 187.0625 290.128906 187.195312 290.5 187.378906 290.839844 Z M 187.429688 290.78125 " fill-opacity="1" fill-rule="nonzero"/></g><path fill="#ffffff" d="M 179.234375 139.152344 C 182.472656 141.320312 185.816406 143.183594 189.769531 143.78125 C 196.171875 144.742188 201.972656 143.453125 207.1875 139.570312 C 207.589844 139.269531 208.113281 139.136719 208.582031 138.925781 L 208.5625 138.859375 C 202.808594 150.359375 187.914062 151.957031 180.421875 141.867188 C 179.855469 141.101562 179.503906 140.179688 179.050781 139.328125 C 179.113281 139.269531 179.171875 139.210938 179.234375 139.152344 Z M 179.234375 139.152344 " fill-opacity="1" fill-rule="nonzero"/><path fill="#ffffff" d="M 195.5625 238.289062 C 194.25 238.816406 193.15625 239.253906 191.746094 239.816406 C 191.59375 232.667969 191.453125 225.875 191.3125 218.960938 C 192.789062 218.554688 194.097656 218.199219 195.5625 217.796875 C 195.5625 224.742188 195.5625 231.496094 195.5625 238.289062 Z M 195.5625 238.289062 " fill-opacity="1" fill-rule="nonzero"/><path fill="#ffffff" d="M 192.210938 266.210938 C 192.210938 260.621094 192.210938 255.140625 192.210938 249.425781 C 192.996094 249.109375 193.949219 248.722656 195.117188 248.246094 C 195.175781 249.042969 195.265625 249.648438 195.257812 250.246094 C 195.1875 254.386719 195.011719 258.527344 195.054688 262.667969 C 195.074219 264.613281 194.359375 265.707031 192.210938 266.210938 Z M 192.210938 266.210938 " fill-opacity="1" fill-rule="nonzero"/><path fill="#ffffff" d="M 192.464844 278.703125 C 192.433594 277.808594 192.515625 276.902344 192.398438 276.019531 C 192.191406 274.421875 192.882812 273.574219 194.78125 273.21875 " fill-opacity="1" fill-rule="nonzero"/><g clip-path="url(#009aad9694)"><path fill="#ffffff" d="M 199.640625 290.730469 C 201.0625 289.144531 202.207031 287.417969 202.609375 285.261719 C 203.394531 281.03125 202.191406 277.574219 198.746094 274.941406 C 197.917969 274.308594 197.085938 273.675781 196.070312 272.90625 C 197.164062 272.355469 198.082031 271.894531 198.945312 271.464844 C 204.753906 275.324219 206.625 281.6875 203.515625 287.140625 C 202.632812 288.699219 201.75 290.460938 199.578125 290.675781 Z M 199.640625 290.730469 " fill-opacity="1" fill-rule="nonzero"/></g><path fill="#ffffff" d="M 208.578125 138.925781 L 208.527344 138.746094 L 208.5625 138.859375 Z M 208.578125 138.925781 " fill-opacity="1" fill-rule="nonzero"/><path fill="#ffffff" d="M 179.050781 139.328125 C 178.980469 139.175781 178.90625 139.027344 178.832031 138.871094 C 178.964844 138.964844 179.097656 139.058594 179.234375 139.152344 C 179.171875 139.210938 179.113281 139.269531 179.050781 139.328125 Z M 179.050781 139.328125 " fill-opacity="1" fill-rule="nonzero"/><path fill="#ffffff" d="M 183.496094 177.390625 C 183.5625 177.414062 183.628906 177.433594 183.695312 177.457031 C 183.644531 177.414062 183.597656 177.378906 183.546875 177.335938 Z M 183.496094 177.390625 " fill-opacity="1" fill-rule="nonzero"/><path fill="#ffffff" d="M 203.375 177.160156 C 203.40625 177.210938 203.4375 177.265625 203.472656 177.320312 C 203.445312 177.285156 203.421875 177.25 203.390625 177.210938 Z M 203.375 177.160156 " fill-opacity="1" fill-rule="nonzero"/><g clip-path="url(#5552fa6a40)"><path fill="#ffffff" d="M 187.375 290.839844 C 187.472656 290.886719 187.570312 290.933594 187.671875 290.976562 C 187.625 290.972656 187.558594 290.988281 187.535156 290.964844 C 187.488281 290.917969 187.464844 290.84375 187.429688 290.78125 Z M 187.375 290.839844 " fill-opacity="1" fill-rule="nonzero"/></g><g clip-path="url(#0118902fa9)"><path fill="#ffffff" d="M 199.574219 290.671875 C 199.550781 290.785156 199.535156 290.898438 199.511719 291.007812 C 199.503906 290.96875 199.472656 290.914062 199.488281 290.886719 C 199.527344 290.828125 199.585938 290.785156 199.640625 290.730469 Z M 199.574219 290.671875 " fill-opacity="1" fill-rule="nonzero"/></g><g transform="matrix(1, 0, 0, 1, 33, 21)"><g clip-path="url(#579e3b0584)"><g fill="#000000" fill-opacity="1"><g transform="translate(56.750355, 218.741509)"><g><path d="M -32.9375 -7.28125 L -28.921875 -9.15625 L -23.984375 1.453125 L -17.546875 -1.53125 L -22.015625 -11.140625 L -18.046875 -12.984375 L -13.578125 -3.375 L -3.703125 -7.96875 L -1.46875 -3.15625 L -25.765625 8.140625 Z M -32.9375 -7.28125 "/></g></g></g><g fill="#000000" fill-opacity="1"><g transform="translate(48.344482, 201.238984)"><g><path d="M -13.671875 -5.375 L -6.59375 -7.296875 L -9.953125 -19.640625 L -5.671875 -20.8125 L -0.921875 -3.359375 L -26.78125 3.6875 L -31.453125 -13.484375 L -27.171875 -14.65625 L -23.890625 -2.59375 L -17.84375 -4.234375 L -20.703125 -14.78125 L -16.53125 -15.921875 Z M -13.671875 -5.375 "/></g></g></g><g fill="#000000" fill-opacity="1"><g transform="translate(42.449386, 181.605221)"><g><path d="M -27.65625 -11.203125 C -27.957031 -15.546875 -27.066406 -18.941406 -24.984375 -21.390625 C -22.910156 -23.835938 -19.660156 -25.21875 -15.234375 -25.53125 C -10.816406 -25.84375 -7.398438 -24.929688 -4.984375 -22.796875 C -2.578125 -20.671875 -1.222656 -17.4375 -0.921875 -13.09375 L -0.25 -3.46875 L -26.984375 -1.578125 Z M -5.34375 -12.46875 C -5.53125 -15.21875 -6.378906 -17.226562 -7.890625 -18.5 C -9.398438 -19.769531 -11.722656 -20.296875 -14.859375 -20.078125 C -17.984375 -19.847656 -20.195312 -19 -21.5 -17.53125 C -22.8125 -16.0625 -23.375 -13.953125 -23.1875 -11.203125 L -22.90625 -7.1875 L -5.0625 -8.453125 Z M -5.34375 -12.46875 "/></g></g></g><g fill="#000000" fill-opacity="1"><g transform="translate(40.638028, 155.624146)"><g><path d="M -10.578125 -10.1875 L -3.3125 -9.265625 L -1.71875 -21.953125 L 2.6875 -21.40625 L 0.4375 -3.453125 L -26.15625 -6.796875 L -23.9375 -24.453125 L -19.53125 -23.90625 L -21.09375 -11.515625 L -14.875 -10.734375 L -13.515625 -21.5625 L -9.21875 -21.015625 Z M -10.578125 -10.1875 "/></g></g></g><g fill="#000000" fill-opacity="1"><g transform="translate(42.903259, 135.105414)"><g><path d="M 1.046875 -3.328125 L -24.5 -11.421875 L -21.234375 -21.671875 C -20.398438 -24.316406 -19.160156 -26.117188 -17.515625 -27.078125 C -15.867188 -28.035156 -13.972656 -28.175781 -11.828125 -27.5 C -10.285156 -27.007812 -9.144531 -26.21875 -8.40625 -25.125 C -7.664062 -24.03125 -7.273438 -22.613281 -7.234375 -20.875 L -6.875 -20.75 C -6.269531 -21.445312 -5.546875 -21.9375 -4.703125 -22.21875 C -3.867188 -22.5 -2.703125 -22.644531 -1.203125 -22.65625 L 7.234375 -22.78125 L 5.578125 -17.609375 L -2.84375 -17.53125 C -3.6875 -17.507812 -4.375 -17.40625 -4.90625 -17.21875 C -5.4375 -17.03125 -5.878906 -16.71875 -6.234375 -16.28125 C -6.585938 -15.851562 -6.890625 -15.242188 -7.140625 -14.453125 L -8 -11.75 L 2.65625 -8.375 Z M -10.53125 -17.609375 C -9.75 -20.054688 -10.5 -21.644531 -12.78125 -22.375 C -15.101562 -23.101562 -16.65625 -22.242188 -17.4375 -19.796875 L -18.890625 -15.203125 L -11.984375 -13.015625 Z M -10.53125 -17.609375 "/></g></g></g><g fill="#000000" fill-opacity="1"><g transform="translate(49.423873, 113.561756)"><g><path d="M 12.34375 -22.5625 L 9.671875 -17.6875 L 3.28125 -18.875 L -1.65625 -9.859375 L 2.8125 -5.125 L 0.1875 -0.359375 L -18.859375 -21.328125 L -15.59375 -27.3125 Z M -12.5 -21.359375 L -4.859375 -13.265625 L -1.328125 -19.734375 L -12.265625 -21.765625 Z M -12.5 -21.359375 "/></g></g></g><g fill="#000000" fill-opacity="1"><g transform="translate(60.785873, 92.756078)"><g><path d="M -15.28125 -23.703125 L 2.078125 -9.609375 L 9.671875 -18.96875 L 13.125 -16.171875 L 2.203125 -2.703125 L -18.609375 -19.59375 Z M -15.28125 -23.703125 "/></g></g></g><g fill="#000000" fill-opacity="1"><g transform="translate(73.680848, 77.310092)"><g/></g></g><g fill="#000000" fill-opacity="1"><g transform="translate(78.15581, 71.830427)"><g><path d="M 10.71875 -7.40625 C 8.914062 -6.070312 7.054688 -5.332031 5.140625 -5.1875 C 3.222656 -5.050781 1.296875 -5.550781 -0.640625 -6.6875 C -2.578125 -7.820312 -4.441406 -9.609375 -6.234375 -12.046875 C -8.046875 -14.503906 -9.132812 -16.875 -9.5 -19.15625 C -9.863281 -21.445312 -9.582031 -23.5625 -8.65625 -25.5 C -7.738281 -27.4375 -6.273438 -29.144531 -4.265625 -30.625 C -2.203125 -32.132812 -0.160156 -33.039062 1.859375 -33.34375 C 3.878906 -33.65625 5.75 -33.265625 7.46875 -32.171875 L 5.734375 -28.015625 L 5.359375 -27.734375 C 4.203125 -28.378906 3.054688 -28.625 1.921875 -28.46875 C 0.796875 -28.320312 -0.363281 -27.8125 -1.5625 -26.9375 C -3.425781 -25.5625 -4.414062 -23.921875 -4.53125 -22.015625 C -4.644531 -20.117188 -3.742188 -17.875 -1.828125 -15.28125 C 0.0859375 -12.675781 1.9375 -11.117188 3.71875 -10.609375 C 5.507812 -10.097656 7.304688 -10.507812 9.109375 -11.84375 C 10.660156 -12.976562 11.546875 -14.171875 11.765625 -15.421875 C 11.992188 -16.671875 11.597656 -17.988281 10.578125 -19.375 L 9.890625 -20.296875 L 4.78125 -16.53125 L 2.234375 -20.015625 L 11.578125 -26.890625 L 20.34375 -14.96875 L 16.265625 -11.96875 L 14.140625 -14.859375 L 13.796875 -14.671875 C 14.117188 -13.328125 14.035156 -12.035156 13.546875 -10.796875 C 13.066406 -9.566406 12.125 -8.4375 10.71875 -7.40625 Z M 10.71875 -7.40625 "/></g></g></g><g fill="#000000" fill-opacity="1"><g transform="translate(98.596547, 56.776735)"><g><path d="M 2.90625 -14.390625 L 6.046875 -7.765625 L 17.625 -13.234375 L 19.515625 -9.21875 L 3.15625 -1.484375 L -8.296875 -25.71875 L 7.78125 -33.328125 L 9.6875 -29.3125 L -1.609375 -23.96875 L 1.0625 -18.296875 L 10.9375 -22.96875 L 12.78125 -19.0625 Z M 2.90625 -14.390625 "/></g></g></g><g fill="#000000" fill-opacity="1"><g transform="translate(116.851994, 47.517369)"><g><path d="M 8.359375 -2.078125 L 3.375 -0.84375 L -3.078125 -26.859375 L 2.8125 -28.3125 L 17.421875 -14.140625 L 17.875 -14.328125 L 13.734375 -31.015625 L 18.671875 -32.25 L 25.125 -6.234375 L 19.859375 -4.921875 L 4.375 -20.078125 L 3.9375 -19.90625 Z M 8.359375 -2.078125 "/></g></g></g><g fill="#000000" fill-opacity="1"><g transform="translate(142.819769, 41.132254)"><g><path d="M 8.234375 -12.140625 L 8.5625 -4.828125 L 21.359375 -5.40625 L 21.5625 -0.96875 L 3.484375 -0.15625 L 2.28125 -26.921875 L 20.0625 -27.71875 L 20.265625 -23.296875 L 7.765625 -22.734375 L 8.046875 -16.46875 L 18.96875 -16.953125 L 19.15625 -12.625 Z M 8.234375 -12.140625 "/></g></g></g><g fill="#000000" fill-opacity="1"><g transform="translate(163.424147, 39.898146)"><g><path d="M 3.453125 0.484375 L 7.125 -26.0625 L 17.78125 -24.59375 C 20.53125 -24.21875 22.515625 -23.300781 23.734375 -21.84375 C 24.953125 -20.382812 25.410156 -18.539062 25.109375 -16.3125 C 24.878906 -14.707031 24.285156 -13.445312 23.328125 -12.53125 C 22.378906 -11.613281 21.050781 -10.992188 19.34375 -10.671875 L 19.28125 -10.28125 C 20.082031 -9.8125 20.691406 -9.179688 21.109375 -8.390625 C 21.523438 -7.609375 21.863281 -6.484375 22.125 -5.015625 L 23.6875 3.265625 L 18.296875 2.53125 L 16.78125 -5.765625 C 16.632812 -6.597656 16.421875 -7.257812 16.140625 -7.75 C 15.859375 -8.25 15.476562 -8.628906 15 -8.890625 C 14.519531 -9.160156 13.867188 -9.351562 13.046875 -9.46875 L 10.234375 -9.859375 L 8.703125 1.203125 Z M 15.578125 -13.359375 C 18.109375 -13.003906 19.539062 -14.015625 19.875 -16.390625 C 20.207031 -18.796875 19.109375 -20.175781 16.578125 -20.53125 L 11.796875 -21.1875 L 10.796875 -14.015625 Z M 15.578125 -13.359375 "/></g></g></g><g fill="#000000" fill-opacity="1"><g transform="translate(185.762406, 42.679849)"><g><path d="M 24.328125 8.359375 L 19.0625 6.546875 L 19.140625 0.046875 L 9.4375 -3.296875 L 5.53125 1.890625 L 0.390625 0.125 L 17.828125 -22.203125 L 24.28125 -20 Z M 18.9375 -15.921875 L 12.25 -7.046875 L 19.21875 -4.640625 L 19.375 -15.78125 Z M 18.9375 -15.921875 "/></g></g></g><g fill="#000000" fill-opacity="1"><g transform="translate(208.187904, 50.362645)"><g><path d="M 20.78125 -19.0625 L 9.828125 0.421875 L 20.328125 6.328125 L 18.15625 10.203125 L 3.03125 1.703125 L 16.15625 -21.65625 Z M 20.78125 -19.0625 "/></g></g></g><g fill="#000000" fill-opacity="1"><g transform="translate(225.593418, 60.458485)"><g/></g></g><g fill="#000000" fill-opacity="1"><g transform="translate(231.750515, 63.824913)"><g><path d="M 26.5625 2.546875 L 33.59375 -4.671875 L 37.359375 -1 L 18.65625 18.1875 L 14.890625 14.515625 L 23.40625 5.78125 L 14.796875 -2.609375 L 6.28125 6.125 L 2.5 2.4375 L 21.203125 -16.75 L 24.984375 -13.0625 L 17.953125 -5.84375 Z M 26.5625 2.546875 "/></g></g></g><g fill="#000000" fill-opacity="1"><g transform="translate(251.056156, 82.22356)"><g><path d="M 7.625 12.46875 C 6.289062 10.40625 5.535156 8.3125 5.359375 6.1875 C 5.179688 4.070312 5.664062 2.007812 6.8125 0 C 7.957031 -2.019531 9.820312 -3.863281 12.40625 -5.53125 C 14.96875 -7.195312 17.398438 -8.144531 19.703125 -8.375 C 22.015625 -8.613281 24.097656 -8.21875 25.953125 -7.1875 C 27.816406 -6.15625 29.414062 -4.609375 30.75 -2.546875 C 32.09375 -0.484375 32.851562 1.597656 33.03125 3.703125 C 33.21875 5.816406 32.734375 7.878906 31.578125 9.890625 C 30.421875 11.910156 28.5625 13.753906 26 15.421875 C 23.414062 17.085938 20.96875 18.035156 18.65625 18.265625 C 16.351562 18.503906 14.273438 18.113281 12.421875 17.09375 C 10.566406 16.070312 8.96875 14.53125 7.625 12.46875 Z M 11.484375 9.953125 C 12.722656 11.859375 14.28125 12.914062 16.15625 13.125 C 18.03125 13.34375 20.316406 12.578125 23.015625 10.828125 C 25.691406 9.085938 27.320312 7.3125 27.90625 5.5 C 28.488281 3.695312 28.160156 1.84375 26.921875 -0.0625 C 25.679688 -1.96875 24.113281 -3.023438 22.21875 -3.234375 C 20.332031 -3.441406 18.050781 -2.675781 15.375 -0.9375 C 12.675781 0.8125 11.039062 2.585938 10.46875 4.390625 C 9.90625 6.191406 10.242188 8.046875 11.484375 9.953125 Z M 11.484375 9.953125 "/></g></g></g><g fill="#000000" fill-opacity="1"><g transform="translate(265.485755, 104.530167)"><g><path d="M 4.03125 11.171875 C 3.34375 9.453125 2.941406 7.835938 2.828125 6.328125 C 2.722656 4.816406 2.835938 3.472656 3.171875 2.296875 C 3.515625 1.128906 4 0.132812 4.625 -0.6875 L 9.03125 0.71875 L 9.1875 1.140625 C 8.375 2.328125 7.867188 3.628906 7.671875 5.046875 C 7.472656 6.472656 7.679688 7.953125 8.296875 9.484375 C 8.816406 10.804688 9.488281 11.691406 10.3125 12.140625 C 11.132812 12.585938 12.035156 12.617188 13.015625 12.234375 C 13.597656 11.992188 14.046875 11.6875 14.359375 11.3125 C 14.679688 10.9375 14.882812 10.441406 14.96875 9.828125 C 15.050781 9.222656 15.023438 8.457031 14.890625 7.53125 L 14.328125 4.015625 C 13.960938 1.578125 14.15625 -0.421875 14.90625 -1.984375 C 15.65625 -3.554688 16.984375 -4.71875 18.890625 -5.46875 C 20.285156 -6.03125 21.65625 -6.171875 23 -5.890625 C 24.351562 -5.609375 25.59375 -4.910156 26.71875 -3.796875 C 27.84375 -2.679688 28.773438 -1.1875 29.515625 0.6875 C 30.285156 2.601562 30.6875 4.34375 30.71875 5.90625 C 30.757812 7.476562 30.445312 8.941406 29.78125 10.296875 L 25.46875 9.203125 L 25.296875 8.765625 C 25.765625 7.773438 26 6.75 26 5.6875 C 26.007812 4.632812 25.78125 3.523438 25.3125 2.359375 C 24.78125 1.003906 24.132812 0.0703125 23.375 -0.4375 C 22.613281 -0.957031 21.816406 -1.050781 20.984375 -0.71875 C 20.191406 -0.40625 19.660156 0.0859375 19.390625 0.765625 C 19.128906 1.441406 19.109375 2.441406 19.328125 3.765625 L 19.953125 7.3125 C 20.398438 9.925781 20.226562 12.019531 19.4375 13.59375 C 18.65625 15.164062 17.28125 16.34375 15.3125 17.125 C 13.757812 17.75 12.269531 17.953125 10.84375 17.734375 C 9.425781 17.523438 8.128906 16.867188 6.953125 15.765625 C 5.785156 14.671875 4.8125 13.140625 4.03125 11.171875 Z M 4.03125 11.171875 "/></g></g></g><g fill="#000000" fill-opacity="1"><g transform="translate(273.370199, 123.613009)"><g><path d="M 29 8.296875 C 29.375 10.171875 29.351562 11.847656 28.9375 13.328125 C 28.519531 14.804688 27.757812 16.007812 26.65625 16.9375 C 25.5625 17.863281 24.191406 18.492188 22.546875 18.828125 C 20.898438 19.160156 19.390625 19.109375 18.015625 18.671875 C 16.648438 18.234375 15.484375 17.414062 14.515625 16.21875 C 13.554688 15.019531 12.890625 13.484375 12.515625 11.609375 L 11.515625 6.640625 L 1.734375 8.609375 L 0.6875 3.421875 L 26.953125 -1.859375 Z M 16.5 10.078125 C 17.082031 12.972656 18.75 14.144531 21.5 13.59375 C 24.257812 13.039062 25.347656 11.316406 24.765625 8.421875 L 23.90625 4.15625 L 15.640625 5.8125 Z M 16.5 10.078125 "/></g></g></g><g fill="#000000" fill-opacity="1"><g transform="translate(277.538201, 145.817916)"><g><path d="M 0.515625 8.765625 L 0.203125 3.484375 L 26.953125 1.890625 L 27.265625 7.171875 Z M 0.515625 8.765625 "/></g></g></g><g fill="#000000" fill-opacity="1"><g transform="translate(278.600162, 156.320484)"><g><path d="M 25.203125 23.34375 L 20.75 23.03125 L 21.296875 15.3125 L -0.984375 13.71875 L -0.609375 8.453125 L 21.671875 10.046875 L 22.234375 2.328125 L 26.6875 2.640625 Z M 25.203125 23.34375 "/></g></g></g><g fill="#000000" fill-opacity="1"><g transform="translate(277.592956, 176.107918)"><g><path d="M -6.46875 24.890625 L -5.0625 19.515625 L 1.40625 19.09375 L 4 9.15625 L -1.46875 5.65625 L -0.109375 0.390625 L 23.515625 16.078125 L 21.796875 22.671875 Z M 17.328125 17.65625 L 7.953125 11.671875 L 6.109375 18.8125 L 17.21875 18.109375 Z M 17.328125 17.65625 "/></g></g></g><g fill="#000000" fill-opacity="1"><g transform="translate(271.652084, 199.058812)"><g><path d="M 20.59375 19.265625 L 0.328125 9.84375 L -4.75 20.765625 L -8.78125 18.890625 L -1.46875 3.15625 L 22.828125 14.453125 Z M 20.59375 19.265625 "/></g></g></g></g></g><g clip-path="url(#bb9aec8e21)"><g clip-path="url(#14556434bc)"><g transform="matrix(1, 0, 0, 1, 73, 255)"><g clip-path="url(#71baab3ff3)"><g clip-path="url(#d3327c2cab)"><g clip-path="url(#d1f4ae41c2)"><path fill="#a61616" d="M 0.359375 0.394531 L 21.476562 0.394531 L 21.476562 20.492188 L 0.359375 20.492188 Z M 0.359375 0.394531 " fill-opacity="1" fill-rule="nonzero"/></g></g></g></g></g></g><g transform="matrix(1, 0, 0, 1, 74, 264)"><g clip-path="url(#8a30804967)"><g fill="#000000" fill-opacity="1"><g transform="translate(9.312262, 28.390387)"><g><path d="M 6.03125 6.46875 L 2.390625 2.578125 L 22.140625 -15.828125 L 25.78125 -11.9375 Z M 6.03125 6.46875 "/></g></g></g><g fill="#000000" fill-opacity="1"><g transform="translate(18.881655, 39.011364)"><g><path d="M 9.015625 7.859375 C 7.566406 6.671875 6.421875 5.4375 5.578125 4.15625 C 4.742188 2.875 4.1875 1.632812 3.90625 0.4375 C 3.625 -0.75 3.570312 -1.851562 3.75 -2.875 L 8.296875 -3.78125 L 8.640625 -3.5 C 8.515625 -2.050781 8.707031 -0.660156 9.21875 0.671875 C 9.738281 2.015625 10.644531 3.21875 11.9375 4.28125 C 13.050781 5.1875 14.078125 5.632812 15.015625 5.625 C 15.953125 5.625 16.757812 5.210938 17.4375 4.390625 C 17.832031 3.898438 18.078125 3.410156 18.171875 2.921875 C 18.265625 2.429688 18.195312 1.898438 17.96875 1.328125 C 17.75 0.753906 17.359375 0.0859375 16.796875 -0.671875 L 14.59375 -3.46875 C 13.0625 -5.445312 12.242188 -7.304688 12.140625 -9.046875 C 12.035156 -10.796875 12.632812 -12.46875 13.9375 -14.0625 C 14.894531 -15.238281 16.035156 -16.035156 17.359375 -16.453125 C 18.679688 -16.867188 20.109375 -16.863281 21.640625 -16.4375 C 23.179688 -16.007812 24.738281 -15.148438 26.3125 -13.859375 C 27.925781 -12.546875 29.128906 -11.207031 29.921875 -9.84375 C 30.722656 -8.488281 31.160156 -7.050781 31.234375 -5.53125 L 26.90625 -4.40625 L 26.546875 -4.703125 C 26.472656 -5.796875 26.179688 -6.804688 25.671875 -7.734375 C 25.160156 -8.671875 24.414062 -9.539062 23.4375 -10.34375 C 22.300781 -11.269531 21.269531 -11.769531 20.34375 -11.84375 C 19.414062 -11.925781 18.664062 -11.617188 18.09375 -10.921875 C 17.5625 -10.265625 17.34375 -9.566406 17.4375 -8.828125 C 17.53125 -8.097656 18 -7.207031 18.84375 -6.15625 L 21.125 -3.34375 C 22.8125 -1.257812 23.691406 0.664062 23.765625 2.4375 C 23.847656 4.207031 23.21875 5.921875 21.875 7.578125 C 20.800781 8.878906 19.585938 9.78125 18.234375 10.28125 C 16.878906 10.789062 15.414062 10.847656 13.84375 10.453125 C 12.28125 10.066406 10.671875 9.203125 9.015625 7.859375 Z M 9.015625 7.859375 "/></g></g></g><g fill="#000000" fill-opacity="1"><g transform="translate(38.88904, 54.992503)"><g><path d="M 20.9375 -19.21875 L 9.90625 0.4375 L 20.46875 6.375 L 18.28125 10.265625 L 3.0625 1.71875 L 16.28125 -21.828125 Z M 20.9375 -19.21875 "/></g></g></g><g fill="#000000" fill-opacity="1"><g transform="translate(60.246451, 66.944304)"><g><path d="M 24.53125 8.328125 L 19.21875 6.515625 L 19.296875 -0.03125 L 9.5 -3.34375 L 5.578125 1.890625 L 0.390625 0.125 L 17.890625 -22.4375 L 24.375 -20.234375 Z M 19 -16.109375 L 12.296875 -7.140625 L 19.328125 -4.75 L 19.453125 -15.96875 Z M 19 -16.109375 "/></g></g></g><g fill="#000000" fill-opacity="1"><g transform="translate(88.343367, 76.583471)"><g><path d="M 8.375 0.78125 L 3.5 0.328125 L 6 -26.5625 L 12.9375 -25.921875 L 17.890625 -5.515625 L 18.28125 -5.46875 L 26.890625 -24.625 L 33.671875 -24 L 31.171875 2.890625 L 26.140625 2.421875 L 27.78125 -15.328125 L 27.34375 -15.4375 L 19.46875 1.8125 L 15.046875 1.390625 L 10.484375 -17.015625 L 10.015625 -16.96875 Z M 8.375 0.78125 "/></g></g></g><g fill="#000000" fill-opacity="1"><g transform="translate(126.378326, 79.223576)"><g><path d="M 25.640625 -3.65625 L 20.09375 -2.875 L 17.203125 -8.734375 L 6.96875 -7.28125 L 5.828125 -0.828125 L 0.40625 -0.0625 L 5.828125 -28.109375 L 12.59375 -29.078125 Z M 9.6875 -22.953125 L 7.75 -11.921875 L 15.09375 -12.96875 L 10.140625 -23.015625 Z M 9.6875 -22.953125 "/></g></g></g><g fill="#000000" fill-opacity="1"><g transform="translate(155.206509, 74.818719)"><g><path d="M 3.3125 -1.1875 L -5.796875 -26.609375 L 5.046875 -30.484375 C 6.597656 -31.046875 8.003906 -31.269531 9.265625 -31.15625 C 10.523438 -31.050781 11.597656 -30.644531 12.484375 -29.9375 C 13.378906 -29.238281 14.050781 -28.265625 14.5 -27.015625 C 14.894531 -25.898438 14.972656 -24.8125 14.734375 -23.75 C 14.492188 -22.695312 13.957031 -21.722656 13.125 -20.828125 L 13.25 -20.46875 C 15.007812 -20.625 16.515625 -20.304688 17.765625 -19.515625 C 19.023438 -18.734375 19.941406 -17.546875 20.515625 -15.953125 C 21.390625 -13.503906 21.332031 -11.359375 20.34375 -9.515625 C 19.351562 -7.671875 17.414062 -6.234375 14.53125 -5.203125 Z M 7.640625 -19.96875 C 9.984375 -20.8125 10.773438 -22.289062 10.015625 -24.40625 C 9.628906 -25.476562 9.050781 -26.171875 8.28125 -26.484375 C 7.507812 -26.804688 6.535156 -26.753906 5.359375 -26.328125 L 0.578125 -24.625 L 2.859375 -18.265625 Z M 12.609375 -9.015625 C 15.378906 -10.003906 16.3125 -11.753906 15.40625 -14.265625 C 14.5 -16.796875 12.660156 -17.566406 9.890625 -16.578125 L 4.1875 -14.53125 L 6.90625 -6.96875 Z M 12.609375 -9.015625 "/></g></g></g><g fill="#000000" fill-opacity="1"><g transform="translate(182.647573, 64.680488)"><g><path d="M 22.140625 -13.453125 L 17.34375 -10.546875 L 12.375 -14.796875 L 3.53125 -9.421875 L 5.03125 -3.0625 L 0.34375 -0.21875 L -5.703125 -28.140625 L 0.15625 -31.6875 Z M -0.125 -24.90625 L 2.4375 -14 L 8.78125 -17.859375 L 0.265625 -25.15625 Z M -0.125 -24.90625 "/></g></g></g><g fill="#000000" fill-opacity="1"><g transform="translate(207.604623, 49.299686)"><g><path d="M -8.9375 -28.6875 C -5.75 -31.707031 -2.539062 -33.1875 0.6875 -33.125 C 3.914062 -33.0625 7.0625 -31.410156 10.125 -28.171875 C 13.1875 -24.929688 14.660156 -21.691406 14.546875 -18.453125 C 14.441406 -15.222656 12.796875 -12.097656 9.609375 -9.078125 L 2.546875 -2.421875 L -16 -22.03125 Z M 6.296875 -12.140625 C 8.316406 -14.046875 9.335938 -15.988281 9.359375 -17.96875 C 9.390625 -19.945312 8.316406 -22.085938 6.140625 -24.390625 C 3.972656 -26.679688 1.898438 -27.867188 -0.078125 -27.953125 C -2.054688 -28.035156 -4.054688 -27.125 -6.078125 -25.21875 L -9.03125 -22.421875 L 3.34375 -9.34375 Z M 6.296875 -12.140625 "/></g></g></g></g></g><g clip-path="url(#d7a73d354a)"><g clip-path="url(#37c8c9fb1f)"><g transform="matrix(1, 0, 0, 1, 297, 250)"><g clip-path="url(#b7f24ea875)"><g clip-path="url(#fe1454f18f)"><g clip-path="url(#c34ee5aa9b)"><path fill="#a61616" d="M 0.679688 0.894531 L 21.796875 0.894531 L 21.796875 20.988281 L 0.679688 20.988281 Z M 0.679688 0.894531 " fill-opacity="1" fill-rule="nonzero"/></g></g></g></g></g></g></svg>